<?xml version="1.0" encoding="UTF-8" standalone="no"?>
<!-- Created with Inkscape (http://www.inkscape.org/) -->

<svg
   xmlns:dc="http://purl.org/dc/elements/1.1/"
   xmlns:cc="http://creativecommons.org/ns#"
   xmlns:rdf="http://www.w3.org/1999/02/22-rdf-syntax-ns#"
   xmlns:svg="http://www.w3.org/2000/svg"
   xmlns="http://www.w3.org/2000/svg"
   xmlns:xlink="http://www.w3.org/1999/xlink"
   xmlns:sodipodi="http://sodipodi.sourceforge.net/DTD/sodipodi-0.dtd"
   xmlns:inkscape="http://www.inkscape.org/namespaces/inkscape"
   id="svg2"
   version="1.1"
   inkscape:version="0.48.4 r9939"
   width="200"
   height="200"
   sodipodi:docname="logo_spaced.svg">
  <metadata
     id="metadata8">
    <rdf:RDF>
      <cc:Work
         rdf:about="">
        <dc:format>image/svg+xml</dc:format>
        <dc:type
           rdf:resource="http://purl.org/dc/dcmitype/StillImage" />
        <dc:title></dc:title>
      </cc:Work>
    </rdf:RDF>
  </metadata>
  <defs
     id="defs6">
    <linearGradient
       id="linearGradient2989">
      <stop
         style="stop-color:#24303a;stop-opacity:0.81176471;"
         offset="0"
         id="stop3771" />
      <stop
         id="stop3767"
         offset="0.40898389"
         style="stop-color:#212d36;stop-opacity:0.74901961;" />
      <stop
         id="stop3765"
         offset="0.60382664"
         style="stop-color:#7e98ad;stop-opacity:1" />
      <stop
         style="stop-color:#40a5c8;stop-opacity:1;"
         offset="0.81490028"
         id="stop3773" />
      <stop
         style="stop-color:#02b3e4;stop-opacity:0.61739129;"
         offset="1"
         id="stop2993" />
    </linearGradient>
    <linearGradient
       inkscape:collect="always"
       xlink:href="#linearGradient2989"
       id="linearGradient2995"
       x1="20.074642"
       y1="35.507786"
       x2="181.57063"
       y2="35.208164"
       gradientUnits="userSpaceOnUse"
       gradientTransform="translate(0.89886455,55.729602)" />
  </defs>
  <sodipodi:namedview
     pagecolor="#ffffff"
     bordercolor="#666666"
     borderopacity="1"
     objecttolerance="10"
     gridtolerance="10"
     guidetolerance="10"
     inkscape:pageopacity="0"
     inkscape:pageshadow="2"
     inkscape:window-width="1366"
     inkscape:window-height="716"
     id="namedview4"
     showgrid="false"
     inkscape:zoom="3.337544"
     inkscape:cx="101.03655"
     inkscape:cy="137.15944"
     inkscape:window-x="0"
     inkscape:window-y="0"
     inkscape:window-maximized="1"
     inkscape:current-layer="svg2" />
  <path
     style="fill:url(#linearGradient2995);fill-opacity:1"
     d="M 32.443126,107.17507 C 26.009884,100.6616 20.762269,94.699098 20.781758,93.925068 c 0.06892,-2.737144 2.586169,-5.744706 13.677987,-16.342202 l 11.213421,-10.71368 2.505154,1.824276 c 1.377834,1.003352 2.519294,2.205023 2.536578,2.67038 0.01728,0.465357 -4.487014,5.614171 -10.009552,11.441809 L 30.66437,93.401358 40.705346,103.47662 c 5.522538,5.5414 10.040977,10.56034 10.040977,11.15321 0,1.51255 -3.36291,4.38791 -5.131938,4.38791 -0.810951,0 -6.738018,-5.3292 -13.171259,-11.84267 z m 15.202008,8.4646 c 0.914408,-1.1018 -0.865391,-3.28839 -8.877555,-10.90664 -5.555396,-5.282262 -10.021256,-10.342062 -10.021256,-11.354032 0,-1.004013 4.372042,-6.213988 9.715649,-11.577721 7.697439,-7.726432 9.459697,-10.008193 8.483501,-10.984389 -0.976196,-0.976196 -3.513724,1.042355 -12.215648,9.717297 -6.348476,6.328791 -10.983502,11.758204 -10.983502,12.865943 0,1.75018 20.434454,23.617612 22.069943,23.617612 0.376842,0 1.199833,-0.62013 1.828868,-1.37807 z M 161.1485,108.95252 c -2.8038,-1.07856 -7.02727,-3.74228 -9.38549,-5.91938 -3.98901,-3.682622 -4.25004,-4.238982 -3.74734,-7.986882 0.59312,-4.422061 -0.67285,-5.54132 -1.68887,-1.49315 -0.71102,2.83292 -4.80359,4.87643 -8.10609,4.04756 -1.57452,-0.39518 -3.33569,0.72282 -7.00145,4.444542 -2.69376,2.73489 -5.39873,4.97253 -6.01103,4.97253 -0.61231,0 -2.17927,-1.1347 -3.48215,-2.52155 l -2.36888,-2.52155 5.19764,-5.263012 5.19763,-5.263012 -5.00307,-4.927847 c -2.7517,-2.710316 -5.00308,-5.428822 -5.00308,-6.041125 0,-1.334111 4.22712,-5.461906 5.59334,-5.461906 1.86435,0 13.48939,12.661557 14.28985,15.563965 l 0.80973,2.936035 1.90744,-4 c 2.15308,-4.515121 5.11412,-5.572323 8.81513,-3.147331 1.81327,1.1881 3.1365,1.294561 6.25425,0.503191 3.24322,-0.823216 5.105,-0.616122 10.35215,1.151513 10.37876,3.496351 15.02165,8.060547 14.94631,14.692969 -0.088,7.74553 -10.10784,10.64213 -21.56602,6.23444 z m 8.32699,-2.53895 c -0.3323,-0.33229 -1.1948,-0.36781 -1.91667,-0.0789 -0.79773,0.31922 -0.56078,0.55618 0.60417,0.60416 1.05416,0.0434 1.64479,-0.19292 1.3125,-0.52522 z M 135.53067,95.017738 c 0.66861,0 1.21565,-1.25159 1.21565,-2.781303 0,-3.841435 -11.07061,-15.043465 -12.80349,-12.955478 -0.8978,1.08178 -0.0907,2.401167 3.83311,6.265959 2.73371,2.692601 4.97038,5.269333 4.97038,5.726071 0,0.456738 -2.06549,3.038611 -4.58998,5.737491 -6.13175,6.555342 -4.82813,8.828872 1.49262,2.60316 2.56633,-2.52774 5.2131,-4.5959 5.88171,-4.5959 z m 44.89876,6.812502 c -0.31922,-0.79773 -0.55618,-0.56078 -0.60416,0.60417 -0.0434,1.05416 0.19292,1.64479 0.52522,1.3125 0.33229,-0.3323 0.36781,-1.1948 0.0789,-1.91667 z m -4.66754,-0.33126 c 1.65912,-1.999122 -0.66477,-4.648922 -6.59472,-7.519562 -4.64304,-2.247654 -6.33661,-1.922219 -9.77632,1.87861 -1.80422,1.99365 -1.7568,2.06524 3.01119,4.546072 5.51028,2.86704 11.48286,3.35652 13.35985,1.09488 z m -23.01557,-7.088892 c 0,-0.82763 -1.94173,-1.29565 -2.38691,-0.57533 -0.28881,0.46731 0.13009,0.84965 0.9309,0.84965 0.8008,0 1.45601,-0.12345 1.45601,-0.27432 z m 4.41929,-4.261752 c 0.21435,-0.346829 -1.08501,-0.630598 -2.88746,-0.630598 -1.97573,0 -3.10929,0.437537 -2.85441,1.101751 0.42198,1.099661 5.00339,0.723731 5.74187,-0.471153 z M 54.206299,99.714288 c -0.317971,-1.26689 -0.439044,-4.75439 -0.269052,-7.749996 0.270985,-4.77531 0.58637,-5.485936 2.559076,-5.766105 2.102262,-0.298569 2.25,0.04615 2.25,5.25 l 0,5.569551 4.893011,0 c 3.55026,0 5.060473,0.4364 5.503245,1.59024 1.062946,2.770002 -0.332291,3.409762 -7.436221,3.409762 -6.391897,0 -6.9662,-0.17638 -7.500059,-2.303452 z m 21.740024,1.103452 c -0.66,-0.66 -1.2,-3.720002 -1.2,-6.800002 0,-3.08 0.54,-6.14 1.2,-6.8 0.682138,-0.682138 3.948789,-1.2 7.569551,-1.2 6.033475,0 6.35269,0.118716 6.05,2.25 -0.272694,1.920075 -1.016058,2.294692 -5.069551,2.554791 -4.500793,0.288801 -4.75,0.456436 -4.75,3.195209 0,2.73877 0.249207,2.90641 4.75,3.19521 4.053493,0.2601 4.796857,0.63471 5.069551,2.55479 0.30269,2.131282 -0.01653,2.250002 -6.05,2.250002 -3.620762,0 -6.887413,-0.51786 -7.569551,-1.2 z m 1.489326,-8.550002 c -0.251528,-0.9625 -0.457323,-0.175 -0.457323,1.75 0,1.925 0.205795,2.7125 0.457323,1.75 0.251527,-0.9625 0.251527,-2.5375 0,-3.5 z m 18.310674,7.54761 c 0,-1.21132 1.438275,-3.68632 3.196167,-5.5 l 3.19616,-3.29761 -3.19616,0 c -2.742578,0 -3.196167,-0.354791 -3.196167,-2.5 0,-2.428571 0.2,-2.5 6.999997,-2.5 6.54776,0 7,0.142287 7,2.202393 0,1.211316 -1.43828,3.686316 -3.19617,5.499997 l -3.19616,3.29761 3.08917,0 c 3.02743,0 4.96694,2.11696 3.74739,4.090242 -0.30925,0.50037 -3.68571,0.90976 -7.50325,0.90976 -6.486928,0 -6.940977,-0.14407 -6.940977,-2.202392 z m 4.666667,-1.28173 c 0,-1.12339 -0.32409,-1.21516 -1.333334,-0.37756 -0.733333,0.60861 -1.333333,1.27647 -1.333333,1.48412 0,0.20766 0.6,0.377562 1.333333,0.377562 0.733334,0 1.333334,-0.667862 1.333334,-1.484122 z m 4.46089,-6.26588 c 1.24387,-1.586056 1.2085,-1.621426 -0.37756,-0.377555 -0.9625,0.754844 -1.75,1.542345 -1.75,1.749995 0,0.82304 0.82119,0.29331 2.12756,-1.37244 z m 2.37244,-3.25 c 0.33992,-0.55 -0.11008,-1 -1,-1 -0.88992,0 -1.33992,0.45 -1,1 0.33992,0.55 0.78992,1 1,1 0.21008,0 0.66008,-0.45 1,-1 z"
     id="path2987"
     inkscape:connector-curvature="0"
     inkscape:export-xdpi="138.94574"
     inkscape:export-ydpi="138.94574"
     inkscape:export-filename="/home/zlindacz/Documents/programming/udacity/projects_github/project_2_portfolio/images/logo-250.png" />
</svg>
